<svg width="133" height="32" viewBox="0 0 133 32" fill="none" xmlns="http://www.w3.org/2000/svg">
<path d="M20.7416 2.64656L18.4168 8.33558C18.2897 8.65963 17.9083 8.82166 17.5632 8.69564C17.2908 8.58762 17.1455 8.33558 17.1636 8.06553L17.4724 1.94443C17.5269 1.00826 18.326 0.306139 19.2523 0.342145C20.1967 0.396155 20.9051 1.1883 20.8688 2.10646C20.8506 2.28649 20.7961 2.46653 20.7416 2.64656Z" fill="#F16037"/>
<path fill-rule="evenodd" clip-rule="evenodd" d="M26.4626 0H30.2585C30.6762 0 31.0758 0.414074 31.0577 0.792142C31.0577 1.23836 30.8431 1.42281 30.6972 1.54824C30.69 1.55439 30.683 1.56039 30.6762 1.56628L21.5951 10.2438V10.2618C21.3045 10.5679 20.8141 10.5679 20.5235 10.2618C20.2874 10.0278 20.251 9.68573 20.3963 9.39768C20.3963 9.39768 24.7371 1.35024 25.0822 0.720129C25.4273 0.0900161 26.172 0 26.4626 0ZM32.0747 15.8786C32.0747 24.6642 24.9006 31.7754 16.0374 31.7754C7.1923 31.7754 0 24.6642 0 15.8786C0 7.86717 5.97542 1.24198 13.7489 0.143783C13.783 0.135342 13.817 0.130859 13.8492 0.126622C13.8857 0.121822 13.9198 0.117339 13.9487 0.107777C14.203 0.12578 14.4209 0.287809 14.4936 0.539854L14.5117 0.773896L15.1293 7.92118L15.1474 8.11921C15.1293 8.37126 14.9476 8.56929 14.7115 8.6413C14.6752 8.6413 14.6389 8.6413 14.6025 8.65931C11.188 9.32543 8.5908 12.314 8.5908 15.8966C8.5908 19.9653 11.9145 23.2779 16.0374 23.2779C20.1421 23.2779 23.4658 19.9833 23.4839 15.9326V15.9146V15.8786V15.8426C23.5021 15.5906 23.6656 15.3925 23.9017 15.3205L24.0107 15.3025L31.2211 13.8262L31.3846 13.7902H31.4209C31.6933 13.7902 31.9294 13.9703 32.0021 14.2403C32.0021 14.2654 32.006 14.2904 32.0102 14.3173C32.015 14.3483 32.0203 14.3817 32.0203 14.4203C32.0566 14.8704 32.0747 15.3745 32.0747 15.8786ZM21.1228 15.8788C21.1228 18.6513 18.8525 20.9197 16.0555 20.9197C13.2585 20.9197 10.9701 18.6693 10.9701 15.8788C10.9701 13.1063 13.2404 10.8379 16.0555 10.8379C18.8525 10.8559 21.1228 13.1063 21.1228 15.8788Z" fill="url(#paint0_linear_5670_10904)"/>
<path d="M29.4413 11.2699L23.5567 13.1602C23.2116 13.2683 22.8484 13.0882 22.7394 12.7462C22.6486 12.4761 22.7576 12.1881 22.9574 12.026L27.8794 8.31737C28.624 7.75927 29.6956 7.90329 30.2586 8.64142C30.8217 9.37955 30.6764 10.4417 29.9317 10.9998C29.7864 11.1259 29.6048 11.2159 29.4413 11.2699Z" fill="#F16037"/>
<path d="M49.483 23.0268H52.9887C52.5709 24.3825 51.7535 25.5032 50.5365 26.3528C49.3196 27.2023 47.9936 27.6362 46.5405 27.6362C45.6687 27.6362 44.815 27.4735 43.9613 27.13C43.1076 26.7866 42.3628 26.2985 41.6908 25.684C41.0369 25.0513 40.5101 24.3102 40.165 23.4425C39.8018 22.5749 39.6201 21.653 39.6201 20.695C39.6201 18.8151 40.2922 17.2425 41.6363 15.9229C42.9804 14.6214 44.6152 13.9707 46.5223 13.9707C47.9755 13.9707 49.3014 14.4045 50.5365 15.2722C51.7717 16.1398 52.5709 17.2605 52.9705 18.6343H49.4649C49.1198 18.074 48.702 17.6582 48.2297 17.3871C47.7575 17.1159 47.1581 16.9894 46.486 16.9894C45.3599 16.9894 44.4698 17.3509 43.7796 18.0559C43.0894 18.7608 42.7624 19.6646 42.7624 20.7492C42.7624 21.8699 43.1257 22.8099 43.8523 23.5329C44.5788 24.274 45.5052 24.6355 46.6495 24.6355C47.2307 24.6355 47.7575 24.4909 48.2661 24.2017C48.7565 23.8944 49.1743 23.5148 49.483 23.0268Z" fill="#6E7171"/>
<path d="M61.1079 13.9707C62.9969 13.9707 64.5953 14.6386 65.9031 15.9745C67.2109 17.3103 67.883 18.935 67.883 20.8305C67.883 22.7079 67.2109 24.3146 65.8486 25.6504C64.4864 26.9863 62.8698 27.6362 60.9626 27.6362C59.0917 27.6362 57.4751 26.9682 56.131 25.6143C54.7687 24.2785 54.0967 22.6718 54.0967 20.8125C54.0967 18.8989 54.7687 17.2742 56.131 15.9384C57.4933 14.6386 59.1462 13.9707 61.1079 13.9707ZM60.9808 16.9854C60.4903 16.9854 59.9999 17.0937 59.5458 17.2923C59.0917 17.4909 58.674 17.7797 58.3288 18.1407C57.6205 18.8448 57.2572 19.7474 57.2572 20.8305C57.2572 21.8775 57.6205 22.7801 58.3288 23.5203C59.0372 24.2604 59.9273 24.6215 60.9989 24.6215C62.0887 24.6215 62.9969 24.2604 63.7053 23.5383C64.4137 22.8162 64.777 21.9136 64.777 20.8305C64.777 19.7654 64.4137 18.8628 63.6872 18.1046C62.9424 17.3465 62.0524 16.9854 60.9808 16.9854Z" fill="#6E7171"/>
<path d="M56.6938 12.882L59.6909 9.68945H62.1611L65.1945 12.882H62.1611L60.9078 11.403L59.4547 12.882H56.6938Z" fill="#6E7171"/>
<path d="M78.8903 23.0268H82.3959C81.9781 24.3825 81.1607 25.5032 79.9438 26.3528C78.7268 27.2023 77.4008 27.6362 75.9477 27.6362C75.0759 27.6362 74.2222 27.4735 73.3685 27.13C72.5148 26.7866 71.7701 26.2985 71.098 25.684C70.4441 25.0513 69.9174 24.3102 69.5723 23.4425C69.209 22.5749 69.0273 21.653 69.0273 20.695C69.0273 18.8151 69.6994 17.2425 71.0435 15.9229C72.3876 14.6214 74.0224 13.9707 75.9296 13.9707C77.3827 13.9707 78.7086 14.4045 79.9438 15.2722C81.1789 16.1398 81.9781 17.2605 82.3777 18.6343H78.8721C78.527 18.074 78.1092 17.6582 77.637 17.3871C77.1466 17.1159 76.5653 16.9894 75.8932 16.9894C74.7671 16.9894 73.8771 17.3509 73.1868 18.0559C72.4966 18.7608 72.1515 19.6646 72.1515 20.7492C72.1515 21.8699 72.5148 22.8099 73.2413 23.5329C73.9679 24.274 74.8942 24.6355 76.0386 24.6355C76.6198 24.6355 77.1647 24.4909 77.6551 24.2017C78.1819 23.8944 78.5815 23.5148 78.8903 23.0268Z" fill="#6E7171"/>
<path d="M99.8878 23.0268H103.393C102.976 24.3825 102.158 25.5032 100.941 26.3528C99.7244 27.2023 98.3984 27.6362 96.9453 27.6362C96.0734 27.6362 95.2197 27.4735 94.366 27.13C93.5123 26.7866 92.7676 26.2985 92.0956 25.684C91.4235 25.0513 90.9149 24.3102 90.5698 23.4425C90.2065 22.5749 90.0249 21.653 90.0249 20.695C90.0249 18.8151 90.697 17.2425 92.0411 15.9229C93.3852 14.6214 95.0199 13.9707 96.9271 13.9707C98.3802 13.9707 99.7062 14.4045 100.941 15.2722C102.176 16.1398 102.976 17.2605 103.375 18.6343H99.8697C99.5245 18.074 99.1249 17.6582 98.6345 17.3871C98.1441 17.1159 97.5629 16.9894 96.8908 16.9894C95.7647 16.9894 94.8746 17.3509 94.1844 18.0559C93.4942 18.7608 93.1491 19.6646 93.1491 20.7492C93.1491 21.8699 93.5123 22.8099 94.2389 23.5329C94.9654 24.274 95.8918 24.6355 97.0361 24.6355C97.6174 24.6355 98.1623 24.4909 98.6527 24.2017C99.1613 23.8944 99.579 23.5148 99.8878 23.0268Z" fill="#6E7171"/>
<path d="M111.567 13.9707C113.456 13.9707 115.054 14.6386 116.362 15.9745C117.67 17.3103 118.342 18.935 118.342 20.8305C118.342 22.7079 117.67 24.3146 116.308 25.6504C114.964 26.9863 113.329 27.6362 111.422 27.6362C109.551 27.6362 107.934 26.9682 106.59 25.6143C105.228 24.2785 104.556 22.6718 104.556 20.8125C104.556 18.8989 105.228 17.2742 106.59 15.9384C107.952 14.6386 109.605 13.9707 111.567 13.9707ZM111.422 16.9854C110.931 16.9854 110.441 17.0937 109.987 17.2923C109.533 17.4909 109.115 17.7797 108.77 18.1407C108.061 18.8448 107.698 19.7474 107.698 20.8305C107.698 21.8775 108.061 22.7801 108.77 23.5203C109.478 24.2604 110.368 24.6215 111.44 24.6215C112.53 24.6215 113.438 24.2604 114.146 23.5383C114.873 22.8162 115.218 21.9136 115.218 20.8305C115.218 19.7654 114.855 18.8628 114.128 18.1046C113.401 17.3465 112.511 16.9854 111.422 16.9854Z" fill="#6E7171"/>
<path d="M107.153 12.882L110.15 9.68945H112.621L115.654 12.882H112.621L111.349 11.403L109.914 12.882H107.153Z" fill="#6E7171"/>
<path d="M129.294 23.0268H132.8C132.382 24.3825 131.565 25.5032 130.348 26.3528C129.131 27.2023 127.805 27.6362 126.352 27.6362C125.48 27.6362 124.626 27.4735 123.773 27.13C122.919 26.7866 122.174 26.2985 121.502 25.684C120.83 25.0513 120.34 24.3102 119.976 23.4425C119.613 22.5749 119.45 21.653 119.45 20.695C119.45 18.8151 120.122 17.2425 121.466 15.9229C122.81 14.6214 124.445 13.9707 126.352 13.9707C127.805 13.9707 129.131 14.4045 130.366 15.2722C131.601 16.1398 132.4 17.2605 132.8 18.6343H129.294C128.949 18.074 128.532 17.6582 128.059 17.3871C127.569 17.1159 126.988 16.9894 126.316 16.9894C125.189 16.9894 124.299 17.3509 123.609 18.0559C122.919 18.7608 122.574 19.6646 122.574 20.7492C122.574 21.8699 122.937 22.8099 123.664 23.5329C124.39 24.274 125.317 24.6355 126.461 24.6355C127.042 24.6355 127.587 24.4909 128.077 24.2017C128.586 23.8944 128.986 23.5148 129.294 23.0268Z" fill="#6E7171"/>
<path d="M64.1959 6.33481L65.2857 3.50302C65.5036 2.94388 65.6853 2.5651 65.8488 2.34866C66.0122 2.13222 66.212 1.98792 66.4845 1.91578C66.9567 1.78952 67.2655 1.96989 67.3745 2.42081C67.4653 2.79958 67.2292 3.35873 66.648 4.0802L64.541 6.74966C64.3957 6.93002 64.2867 7.02021 64.2322 7.03825C64.1232 7.05628 64.0687 7.03825 64.0324 6.93002C63.9961 6.87591 64.0505 6.67751 64.1959 6.33481Z" fill="#4FBA69"/>
<path d="M65.5396 7.65141L67.5013 5.32465C67.8827 4.87373 68.1915 4.56711 68.4094 4.40477C68.6274 4.24244 68.8817 4.1703 69.1542 4.20637C69.6446 4.24244 69.8625 4.49496 69.8262 4.98195C69.7899 5.37877 69.3903 5.81165 68.5911 6.31668L65.7212 8.15644C65.5214 8.2827 65.3943 8.33681 65.3216 8.33681C65.2126 8.33681 65.1581 8.2827 65.1763 8.17448C65.1763 8.10233 65.3034 7.94 65.5396 7.65141Z" fill="#4FBA69"/>
<path d="M66.7567 9.02238L69.4449 7.59747C69.9716 7.32691 70.3712 7.14655 70.6255 7.09244C70.898 7.02029 71.1523 7.05636 71.3884 7.18262C71.8243 7.39906 71.9333 7.72373 71.7154 8.15661C71.5337 8.49931 70.9888 8.76986 70.0625 8.9322L66.7022 9.56349C66.4842 9.59956 66.3389 9.6176 66.2662 9.58152C66.1754 9.52741 66.1391 9.4733 66.1936 9.38312C66.2481 9.31097 66.4297 9.20275 66.7567 9.02238Z" fill="#4FBA69"/>
<path d="M114.6 6.37072L115.69 3.5209C115.908 2.96175 116.09 2.58298 116.253 2.3485C116.416 2.13206 116.616 1.98776 116.889 1.91562C117.361 1.78936 117.67 1.96973 117.797 2.43868C117.888 2.81746 117.652 3.3766 117.07 4.11611L114.963 6.80361C114.818 6.98397 114.709 7.07416 114.655 7.0922C114.546 7.11023 114.491 7.0922 114.455 6.98397C114.4 6.91183 114.455 6.71342 114.6 6.37072Z" fill="#F16037"/>
<path d="M115.944 7.68743L117.924 5.34264C118.305 4.89172 118.614 4.58509 118.832 4.42276C119.05 4.26043 119.304 4.18828 119.577 4.20632C120.067 4.24239 120.303 4.51295 120.249 4.9819C120.212 5.37871 119.813 5.82964 118.995 6.33467L116.107 8.19247C115.908 8.31872 115.78 8.37283 115.708 8.37283C115.599 8.37283 115.544 8.31872 115.563 8.2105C115.581 8.15639 115.708 7.97602 115.944 7.68743Z" fill="#F16037"/>
<path d="M117.179 9.07658L119.886 7.65167C120.413 7.38111 120.812 7.20075 121.085 7.14663C121.357 7.07449 121.611 7.11056 121.847 7.23682C122.283 7.45326 122.392 7.77793 122.193 8.21081C122.011 8.55351 121.466 8.82406 120.522 8.9864L117.143 9.61769C116.907 9.65376 116.762 9.6718 116.707 9.63572C116.616 9.58161 116.58 9.50946 116.634 9.43732C116.671 9.36517 116.852 9.23891 117.179 9.07658Z" fill="#F16037"/>
<defs>
<linearGradient id="paint0_linear_5670_10904" x1="0" y1="19.4183" x2="32.0747" y2="19.4183" gradientUnits="userSpaceOnUse">
<stop stop-color="#97C93D"/>
<stop offset="1" stop-color="#4FBA69"/>
</linearGradient>
</defs>
</svg>
