<svg width="32" height="32" viewBox="0 0 32 32" fill="none" xmlns="http://www.w3.org/2000/svg">
<path d="M13.3334 13.3334H18.6667V10.6667H13.3334V13.3334Z" fill="#4FBA69"/>
<path fill-rule="evenodd" clip-rule="evenodd" d="M22.6667 2.66675H6.66671C6.31309 2.66675 5.97395 2.80722 5.7239 3.05727C5.47385 3.30732 5.33337 3.64646 5.33337 4.00008V28.0001C5.33337 28.3537 5.47385 28.6928 5.7239 28.9429C5.97395 29.1929 6.31309 29.3334 6.66671 29.3334H22.6667C23.7276 29.3334 24.745 28.912 25.4951 28.1618C26.2453 27.4117 26.6667 26.3943 26.6667 25.3334V6.66675C26.6667 5.60588 26.2453 4.58847 25.4951 3.83832C24.745 3.08818 23.7276 2.66675 22.6667 2.66675ZM20 8.00008H12C11.6464 8.00008 11.3073 8.14056 11.0572 8.39061C10.8072 8.64065 10.6667 8.97979 10.6667 9.33342V14.6667C10.6667 15.0204 10.8072 15.3595 11.0572 15.6096C11.3073 15.8596 11.6464 16.0001 12 16.0001H20C20.3537 16.0001 20.6928 15.8596 20.9428 15.6096C21.1929 15.3595 21.3334 15.0204 21.3334 14.6667V9.33342C21.3334 8.97979 21.1929 8.64065 20.9428 8.39061C20.6928 8.14056 20.3537 8.00008 20 8.00008Z" fill="#4FBA69"/>
</svg>
