<svg width="32" height="32" viewBox="0 0 32 32" fill="none" xmlns="http://www.w3.org/2000/svg">
<path fill-rule="evenodd" clip-rule="evenodd" d="M23.1496 7.17327C24.1449 7.17327 24.9953 7.79334 25.3357 8.66824H6.5624C6.80026 7.29846 7.98487 6.25346 9.41755 6.23193C9.62388 4.50551 11.0933 3.16708 12.8752 3.16708C13.8105 3.16708 14.6596 3.53573 15.2852 4.13564C16.0796 3.23484 17.2424 2.66663 18.5379 2.66663C20.9322 2.66663 22.8732 4.60761 22.8732 7.00193C22.8732 7.0649 22.8718 7.12755 22.8692 7.18986C22.9611 7.1789 23.0547 7.17327 23.1496 7.17327ZM25.4708 10.6666L6.5293 10.6798L10.1156 27.3153C10.248 27.9293 10.7909 28.3676 11.419 28.3676H20.6452C21.2752 28.3676 21.8193 27.9266 21.9497 27.3102L25.4708 10.6666ZM13.3977 13.831C13.3423 13.1724 12.8073 12.6562 12.079 12.6562C11.3508 12.6562 10.6627 13.1009 10.7604 13.831C10.858 14.561 12.5333 26.3617 12.5333 26.3617H14.2915C14.2915 26.3617 13.4531 14.4895 13.3977 13.831ZM19.8987 12.6562C20.6269 12.6562 21.331 13.1071 21.2173 13.831C21.1037 14.5549 19.4444 26.3617 19.4444 26.3617H17.6862C17.6862 26.3617 18.5184 14.6404 18.58 13.831C18.6415 13.0215 19.1704 12.6562 19.8987 12.6562Z" fill="#4FBA69"/>
</svg>
