<svg width="32" height="32" viewBox="0 0 32 32" fill="none" xmlns="http://www.w3.org/2000/svg">
<path fill-rule="evenodd" clip-rule="evenodd" d="M16.9182 2.7291C16.7199 2.67597 16.5385 2.85741 16.5916 3.05569L17.8468 7.74019C17.9 7.93847 18.1478 8.00488 18.293 7.85973L19.0653 7.08744L21.9332 9.95541C22.0374 10.0595 22.2062 10.0595 22.3104 9.95541L23.8189 8.44691C23.923 8.34277 23.923 8.17393 23.8189 8.06979L20.9509 5.20182L21.7223 4.43044C21.8674 4.28529 21.801 4.03743 21.6027 3.9843L16.9182 2.7291ZM25.0082 25.6133H7.03776C6.66957 25.6133 6.37109 25.3148 6.37109 24.9466V6.97621C6.37109 6.38227 7.08919 6.08483 7.50917 6.50481L25.4796 24.4752C25.8995 24.8952 25.6021 25.6133 25.0082 25.6133ZM16.3153 21.6144H10.6352C10.4879 21.6144 10.3685 21.495 10.3685 21.3477V15.6676C10.3685 15.43 10.6557 15.311 10.8237 15.479L16.5039 21.1592C16.6719 21.3272 16.5529 21.6144 16.3153 21.6144ZM25.7618 18.6039C25.9601 18.6571 26.1415 18.4756 26.0884 18.2774L24.8332 13.5929C24.7801 13.3946 24.5322 13.3282 24.387 13.4733L23.6157 14.2447L20.7477 11.3767C20.6436 11.2726 20.4747 11.2726 20.3706 11.3767L18.8621 12.8852C18.7579 12.9894 18.7579 13.1582 18.8621 13.2623L21.7301 16.1303L20.9578 16.9026C20.8126 17.0478 20.879 17.2956 21.0773 17.3487L25.7618 18.6039Z" fill="#4FBA69"/>
</svg>
