<svg width="22" height="23" viewBox="0 0 22 23" fill="none" xmlns="http://www.w3.org/2000/svg">
<path fill-rule="evenodd" clip-rule="evenodd" d="M6.48506 0.68457C6.11687 0.68457 5.81839 0.983048 5.81839 1.35124V2.96776C5.81839 3.33595 6.11687 3.63442 6.48506 3.63442H7.76893V8.325L0.9072 19.3932C-0.00649828 20.8671 1.05348 22.7713 2.78756 22.7713H19.1519C20.6877 22.7713 21.6952 21.2774 21.27 19.9115C21.2154 19.7344 21.1367 19.5594 21.032 19.39L18.6255 15.4983L14.1929 8.325V3.63442H15.4766C15.8448 3.63442 16.1432 3.33595 16.1432 2.96776V1.35124C16.1432 0.983047 15.8448 0.68457 15.4766 0.68457H6.48506ZM9.10226 3.63442H12.8596V8.325V8.70371L13.0587 9.02588L14.7243 11.7213C13.6443 11.5615 12.1544 11.5591 10.3786 12.1202C8.64747 12.6672 7.44104 12.747 6.64217 12.673L8.90216 9.02754L9.10226 8.70477V8.325V3.63442Z" fill="#4FBA69"/>
</svg>
