<svg width="32" height="32" viewBox="0 0 32 32" fill="none" xmlns="http://www.w3.org/2000/svg">
<path fill-rule="evenodd" clip-rule="evenodd" d="M11.9739 5.07965C11.7961 5.18229 11.7961 5.43889 11.9739 5.54153L16.1739 7.9664C16.3517 8.06904 16.5739 7.94074 16.5739 7.73546V6.24426C17.6471 6.31136 18.7033 6.55549 19.6993 6.96806C20.8833 7.45846 21.959 8.17726 22.8652 9.0834C23.7713 9.98955 24.4901 11.0653 24.9805 12.2492C25.4709 13.4332 25.7233 14.7021 25.7233 15.9836H26.2869L27.0567 15.9836H27.6202C27.6202 15.5372 27.5946 15.092 27.5437 14.6503C27.4202 13.5775 27.1479 12.525 26.733 11.5233C26.1473 10.1093 25.2888 8.82439 24.2065 7.7421C23.1242 6.65981 21.8393 5.80129 20.4253 5.21556C19.4236 4.80067 18.3711 4.5284 17.2983 4.40487C17.0577 4.37717 16.8162 4.35695 16.5739 4.34427V2.88572C16.5739 2.68044 16.3517 2.55214 16.1739 2.65478L11.9739 5.07965ZM21.3814 12.2323H20.3536V22.0295H17.5189V20.7033C17.2536 21.1454 16.8724 21.499 16.375 21.7643C15.8888 22.0295 15.3196 22.1621 14.6676 22.1621C13.905 22.1621 13.2143 21.9687 12.5954 21.5819C11.9765 21.1841 11.4847 20.626 11.12 19.9076C10.7664 19.1782 10.5895 18.3383 10.5895 17.3879C10.5895 16.4374 10.7664 15.603 11.12 14.8847C11.4847 14.1663 11.9765 13.6137 12.5954 13.2269C13.2143 12.8401 13.905 12.6467 14.6676 12.6467C15.2754 12.6467 15.828 12.7738 16.3253 13.028C16.8337 13.2822 17.2315 13.6248 17.5189 14.0558V12.2323H16.3585V10.873H17.5189V9.76227H20.3536V10.873H21.3814V12.2323ZM15.4964 19.6921C16.0601 19.6921 16.5353 19.4877 16.9221 19.0788C17.32 18.6698 17.5189 18.1117 17.5189 17.4044C17.5189 16.6971 17.32 16.139 16.9221 15.7301C16.5353 15.3212 16.0601 15.1168 15.4964 15.1168C14.9328 15.1168 14.4521 15.3212 14.0542 15.7301C13.6674 16.128 13.474 16.6806 13.474 17.3879C13.474 18.0952 13.6674 18.6588 14.0542 19.0788C14.4521 19.4877 14.9328 19.6921 15.4964 19.6921ZM15.4142 29.0045V27.626C15.1523 27.6136 14.8916 27.5924 14.6325 27.5625C12.0321 27.2632 9.59346 26.0944 7.72429 24.2253C5.85512 22.3561 4.68639 19.9174 4.38702 17.3171C4.33631 16.8766 4.31055 16.4315 4.31055 15.9838H4.9285H5.64388H6.26183C6.26183 18.5574 7.28421 21.0256 9.10406 22.8455C10.7935 24.5349 13.0417 25.5371 15.4142 25.672V24.1548C15.4142 23.9495 15.6365 23.8212 15.8142 23.9239L20.0142 26.3487C20.192 26.4514 20.192 26.708 20.0142 26.8106L15.8142 29.2355C15.6365 29.3381 15.4142 29.2098 15.4142 29.0045Z" fill="#4FBA69"/>
</svg>
