<svg width="32" height="32" viewBox="0 0 32 32" fill="none" xmlns="http://www.w3.org/2000/svg">
<g filter="url(#filter0_i_467_6835)">
<path fill-rule="evenodd" clip-rule="evenodd" d="M16.2502 3.05943C16.089 3.11317 15.9147 3.11317 15.7535 3.05943L14.6795 2.70143C14.1709 2.53191 13.6458 2.91043 13.6458 3.44649V3.76048C13.6458 4.22906 14.1048 4.55993 14.5494 4.41175C15.0216 4.25435 15.4991 4.63606 15.4495 5.13133L15.3015 6.61197C13.2087 6.76308 11.3056 7.59874 9.81494 8.89614L8.64137 7.93594C8.25614 7.62076 8.32388 7.0132 8.76907 6.7906C9.18818 6.58105 9.27882 6.02248 8.94749 5.69115L8.72546 5.46913C8.34641 5.09008 7.7074 5.19377 7.46767 5.67324L6.96137 6.68583C6.88538 6.83782 6.76214 6.96106 6.61015 7.03706L5.59755 7.54336C5.11809 7.78309 5.01439 8.42209 5.39344 8.80114L5.61547 9.02317C5.9468 9.3545 6.50537 9.26386 6.71492 8.84475C6.93751 8.39956 7.54507 8.33182 7.86026 8.71705L8.82512 9.89632C7.55759 11.3836 6.74508 13.2706 6.60293 15.3418L5.09349 15.4928C4.59822 15.5423 4.21651 15.0648 4.37391 14.5926C4.52209 14.148 4.19121 13.689 3.72264 13.689H3.40865C2.87259 13.689 2.49407 14.2142 2.66359 14.7227L3.02159 15.7967C3.07533 15.9579 3.07533 16.1322 3.02159 16.2934L2.66359 17.3674C2.49407 17.876 2.87259 18.4012 3.40865 18.4012H3.72264C4.19121 18.4012 4.52209 17.9421 4.37391 17.4976C4.21651 17.0254 4.59822 16.5479 5.09349 16.5974L6.61031 16.7491C6.77319 18.8044 7.59656 20.6737 8.86816 22.1449L7.92427 23.2985C7.60909 23.6837 7.00153 23.616 6.77893 23.1708C6.56938 22.7517 6.01082 22.661 5.67948 22.9924L5.45746 23.2144C5.07841 23.5934 5.1821 24.2324 5.66157 24.4722L6.67416 24.9785C6.82615 25.0545 6.94939 25.1777 7.02539 25.3297L7.53169 26.3423C7.77142 26.8218 8.41042 26.9255 8.78947 26.5464L9.0115 26.3244C9.34283 25.9931 9.25219 25.4345 8.83309 25.2249C8.3879 25.0023 8.32015 24.3948 8.70538 24.0796L9.86062 23.1344C11.3443 24.4092 13.2298 25.2294 15.3012 25.379L15.4495 26.8626C15.4991 27.3578 15.0216 27.7395 14.5494 27.5821C14.1048 27.434 13.6458 27.7648 13.6458 28.2334V28.5474C13.6458 29.0835 14.1709 29.462 14.6795 29.2925L15.7535 28.9345C15.9147 28.8807 16.089 28.8807 16.2502 28.9345L17.3242 29.2925C17.8328 29.462 18.358 29.0835 18.358 28.5474V28.2334C18.358 27.7648 17.8989 27.434 17.4544 27.5821C16.9822 27.7395 16.5047 27.3578 16.5542 26.8626L16.7027 25.3771C18.7503 25.2235 20.615 24.4145 22.0879 23.1594L23.2692 24.1259C23.6544 24.4411 23.5867 25.0486 23.1415 25.2712C22.7224 25.4808 22.6318 26.0394 22.9631 26.3707L23.1851 26.5927C23.5642 26.9718 24.2032 26.8681 24.4429 26.3886L24.9492 25.376C25.0252 25.224 25.1484 25.1008 25.3004 25.0248L26.313 24.5185C26.7925 24.2788 26.8962 23.6397 26.5171 23.2607L26.2951 23.0387C25.9638 22.7073 25.4052 22.798 25.1957 23.2171C24.9731 23.6623 24.3655 23.73 24.0503 23.3448L23.0884 22.1692C24.372 20.6943 25.2036 18.8157 25.3674 16.7492L26.8849 16.5974C27.3802 16.5479 27.7619 17.0254 27.6045 17.4976C27.4563 17.9421 27.7872 18.4012 28.2558 18.4012H28.5698C29.1058 18.4012 29.4844 17.876 29.3148 17.3674L28.9568 16.2934C28.9031 16.1322 28.9031 15.9579 28.9568 15.7967L29.3148 14.7227C29.4844 14.2142 29.1058 13.689 28.5698 13.689H28.2558C27.7872 13.689 27.4563 14.148 27.6045 14.5926C27.7619 15.0648 27.3802 15.5423 26.8849 15.4928L25.3748 15.3417C25.2317 13.257 24.4094 11.359 23.1277 9.86721L24.0718 8.71331C24.3869 8.32808 24.9945 8.39583 25.2171 8.84101C25.4267 9.26012 25.9852 9.35076 26.3165 9.01943L26.5386 8.7974C26.9176 8.41836 26.8139 7.77935 26.3345 7.53962L25.3219 7.03332C25.1699 6.95732 25.0466 6.83408 24.9706 6.68209L24.4643 5.6695C24.2246 5.19003 23.5856 5.08634 23.2066 5.46539L22.9845 5.68741C22.6532 6.01875 22.7438 6.57731 23.1629 6.78686C23.6081 7.00946 23.6759 7.61702 23.2907 7.9322L22.1384 8.87499C20.6577 7.59506 18.7735 6.76922 16.7024 6.6139L16.5542 5.13133C16.5047 4.63606 16.9822 4.25435 17.4544 4.41175C17.8989 4.55993 18.358 4.22906 18.358 3.76048V3.44649C18.358 2.91043 17.8328 2.53191 17.3242 2.70143L16.2502 3.05943ZM13.7359 19.2306C13.9636 18.952 14.0383 18.5982 14.0418 18.2385C14.0453 17.8742 13.9945 17.5018 13.7552 17.2271C13.5006 16.9346 13.1314 16.7357 12.7438 16.7481C12.3655 16.7602 11.9765 16.9702 11.6984 17.2271C11.4036 17.4995 11.1678 17.8389 11.1307 18.2385C11.0911 18.6649 11.2955 19.0811 11.6007 19.3816C11.9036 19.6798 12.3198 19.8567 12.7438 19.8267C13.1439 19.7984 13.4821 19.5411 13.7359 19.2306ZM20.7628 14.5848C21.0783 14.6097 21.4066 14.7427 21.6608 14.9312C21.9522 15.1473 22.1648 15.468 22.199 15.8292C22.2364 16.2229 22.1565 16.6667 21.8492 16.9156C21.5834 17.1307 21.2132 17.0681 20.8688 17.0098L20.8686 17.0098L20.8256 17.0025L20.7628 16.9921C20.4647 16.9441 20.2129 16.8036 19.9778 16.6142C19.9411 16.5848 19.9036 16.5555 19.8658 16.5261L19.8655 16.5259L19.8655 16.5258L19.8655 16.5258C19.6179 16.3331 19.3625 16.1342 19.3182 15.8292C19.2623 15.4442 19.3981 15.0085 19.7112 14.7776C20.0045 14.5613 20.3995 14.5562 20.7628 14.5848ZM14.7112 14.7699C15.3459 14.7207 15.9343 14.3749 16.3064 13.8583C16.6754 13.3458 16.7792 12.6891 16.6559 12.0697C16.5379 11.4768 16.1721 10.9626 15.6645 10.6343C15.1852 10.3243 14.6012 10.2862 14.0376 10.3763C13.4784 10.4658 12.9408 10.6856 12.5858 11.1268C12.2152 11.5872 12.0106 12.1841 12.1142 12.766C12.2158 13.3367 12.6572 13.7515 13.1161 14.1056C13.5901 14.4714 14.1142 14.8162 14.7112 14.7699Z" fill="#4FBA69"/>
</g>
<defs>
<filter id="filter0_i_467_6835" x="2.62268" y="2.66052" width="26.733" height="26.6729" filterUnits="userSpaceOnUse" color-interpolation-filters="sRGB">
<feFlood flood-opacity="0" result="BackgroundImageFix"/>
<feBlend mode="normal" in="SourceGraphic" in2="BackgroundImageFix" result="shape"/>
<feColorMatrix in="SourceAlpha" type="matrix" values="0 0 0 0 0 0 0 0 0 0 0 0 0 0 0 0 0 0 127 0" result="hardAlpha"/>
<feOffset/>
<feGaussianBlur stdDeviation="1"/>
<feComposite in2="hardAlpha" operator="arithmetic" k2="-1" k3="1"/>
<feColorMatrix type="matrix" values="0 0 0 0 0.160784 0 0 0 0 0.407843 0 0 0 0 0.219608 0 0 0 0.25 0"/>
<feBlend mode="normal" in2="shape" result="effect1_innerShadow_467_6835"/>
</filter>
</defs>
</svg>
