<svg width="32" height="32" viewBox="0 0 32 32" fill="none" xmlns="http://www.w3.org/2000/svg">
<path fill-rule="evenodd" clip-rule="evenodd" d="M6.66671 2.67529C5.93033 2.67529 5.33337 3.27225 5.33337 4.00863V28.0086C5.33337 28.745 5.93033 29.342 6.66671 29.342H7.33337V2.67529H6.66671ZM20.8284 2.67529H9.33337V29.342H25.3334C26.0698 29.342 26.6667 28.745 26.6667 28.0086V4.00863C26.6667 3.27225 26.0698 2.67529 25.3334 2.67529H23.997V7.95629L22.4127 6.40513L20.8284 7.95629V2.67529ZM12.4867 20.0086L12.8787 18.8513H15.324L15.716 20.0086H17.4054L15.0347 13.4566H13.1867L10.816 20.0086H12.4867ZM14.1014 15.2206L14.9134 17.6193H13.2987L14.1014 15.2206ZM21.5039 18.702H24.3226V20.0086H19.6933V18.7953L22.4933 14.7633H19.6933V13.4566H24.3226V14.67L21.5039 18.702ZM17.3392 15.6667H19.3392V17.6667H17.3392V15.6667Z" fill="#4FBA69"/>
</svg>
