<svg width="32" height="32" viewBox="0 0 32 32" fill="none" xmlns="http://www.w3.org/2000/svg">
<path fill-rule="evenodd" clip-rule="evenodd" d="M3.03795 14.6537C2.54072 14.9644 2.77663 15.6808 2.77663 15.6808L2.78117 15.6828C2.80299 15.7999 2.87899 15.9076 3.00561 15.9612L6.94642 17.6321V22.441C6.94642 22.8118 7.21352 23.1282 7.57866 23.1928C8.50247 23.3561 10.2445 23.6801 11.4718 24.0052C12.7824 24.3523 14.585 24.9863 15.4673 25.3051C15.8103 25.429 16.1842 25.429 16.5272 25.3051C17.4095 24.9863 19.2121 24.3523 20.5227 24.0052C21.75 23.6801 23.492 23.3561 24.4158 23.1928C24.781 23.1282 25.0481 22.8118 25.0481 22.441V17.6423L27.6469 16.5484V19.5218C27.3793 19.6388 27.1923 19.9058 27.1923 20.2165V21.338C27.1923 21.4217 27.2602 21.4895 27.3439 21.4895H28.5562C28.6399 21.4895 28.7077 21.4217 28.7077 21.338V20.2165C28.7077 19.9058 28.5207 19.6388 28.2531 19.5218V16.2932L28.9137 16.0152C29.0331 15.9649 29.1077 15.8667 29.1344 15.7576L29.1365 15.7567C29.1365 15.7567 29.4774 15.0429 28.8801 14.5562C28.348 14.1227 18.498 7.7283 16.3511 6.33566C16.0975 6.17109 15.7844 6.1731 15.5329 6.34087C13.3875 7.77151 3.48121 14.3766 3.03795 14.6537ZM25.05 15.5202V16.9582C25.05 16.9582 21.8034 15.1238 15.9678 15.1238C10.1322 15.1238 6.93606 16.995 6.93606 16.995V15.5269C6.93606 15.5269 9.29217 13.5822 15.9678 13.5822C22.6435 13.5822 25.05 15.5202 25.05 15.5202ZM28.3538 21.4895H27.5893C27.5893 21.4895 26.9003 22.768 27.1406 24.3354C27.3809 25.9028 26.6751 27.1812 26.6751 27.1812H29.2883C29.2883 27.1812 29.5736 25.8015 28.9361 24.3354C28.2985 22.8693 28.3538 21.4895 28.3538 21.4895Z" fill="#4FBA69"/>
</svg>
