<svg width="32" height="32" viewBox="0 0 32 32" fill="none" xmlns="http://www.w3.org/2000/svg">
<path fill-rule="evenodd" clip-rule="evenodd" d="M11.662 3.38818C13.0219 2.92052 14.4813 2.66663 16 2.66663C17.4957 2.66663 18.934 2.91293 20.2763 3.36719C20.297 3.37416 20.3175 3.38118 20.3381 3.38826C22.7784 4.22747 24.8984 5.75499 26.4665 7.73893C28.2617 10.0103 29.3333 12.88 29.3333 16C29.3333 16.1438 29.331 16.2871 29.3265 16.4298C29.2416 19.1118 28.3646 21.5939 26.9217 23.6501C25.1242 26.2114 22.4486 28.1117 19.3322 28.9135C18.2671 29.1876 17.1506 29.3333 16 29.3333C14.9771 29.3333 13.9811 29.2181 13.0243 29C10.1065 28.3349 7.55293 26.7127 5.71131 24.4812C4.04577 22.463 2.96255 19.9465 2.7189 17.1887C2.6843 16.7971 2.66663 16.4006 2.66663 16C2.66663 13.2385 3.50609 10.6732 4.94375 8.54517C4.96806 8.50919 4.99253 8.47333 5.01718 8.43761C6.62049 6.11355 8.94243 4.32342 11.662 3.38818ZM7.46593 9.59984C8.5637 8.1384 10.0281 6.9681 11.7226 6.22553L16.0001 9.33327L20.2774 6.22558C21.8959 6.93484 23.3044 8.03428 24.384 9.40491L22.9879 13.7018L26.6603 16.37C26.5803 18.7183 25.7411 20.8741 24.3805 22.5995H20.3106L19.1419 26.1963C18.1486 26.5021 17.0935 26.6666 16 26.6666C14.9065 26.6666 13.8515 26.5021 12.8583 26.1964L11.6895 22.5993H7.61927C6.39047 21.041 5.587 19.1316 5.38397 17.0464L9.02575 14.4005L7.46593 9.59984ZM21.0723 15.0185L16 11.3333L10.9277 15.0185L12.8651 20.9814H19.1348L21.0723 15.0185Z" fill="#4FBA69"/>
</svg>
