<svg width="32" height="32" viewBox="0 0 32 32" fill="none" xmlns="http://www.w3.org/2000/svg">
<path fill-rule="evenodd" clip-rule="evenodd" d="M25.6727 10.0937L18.1947 12.3505L13.4764 13.7745L6.41384 15.9059L4.27955 13.1195C4.05829 12.8306 3.68471 12.7036 3.33324 12.7978C2.85369 12.9263 2.56911 13.4192 2.6976 13.8988L4.00623 18.7826C4.03172 18.8777 4.06398 18.9692 4.10235 19.0567L4.10303 19.0598C4.39454 20.3527 5.70307 21.1435 6.98327 20.8005L15.302 18.5715L15.3022 26.3796C15.3022 26.5544 15.4676 26.682 15.6366 26.6376L17.9333 26.0344C18.1831 25.9688 18.3725 25.7648 18.4195 25.5109L19.9329 17.3306L27.3253 15.3499C28.7699 14.9628 29.6273 13.4778 29.2402 12.0331C28.926 10.8607 27.8916 10.0796 26.7469 10.0278C26.3999 9.96736 26.0337 9.98476 25.6727 10.0937ZM16.0835 10.8986L11.8717 12.1697L9.34741 9.64533C9.03843 9.33634 9.10529 8.81862 9.48263 8.59825L10.8782 7.78324C11.1012 7.653 11.3794 7.66328 11.5922 7.80963L16.0835 10.8986Z" fill="#4FBA69"/>
</svg>
