<svg width="32" height="32" viewBox="0 0 32 32" fill="none" xmlns="http://www.w3.org/2000/svg">
<path fill-rule="evenodd" clip-rule="evenodd" d="M13.9889 2.66675C13.6207 2.66675 13.3223 2.96522 13.3223 3.33341V4.66675C13.3223 5.03494 13.6207 5.33341 13.9889 5.33341H17.9889C18.3571 5.33341 18.6556 5.03494 18.6556 4.66675V3.33341C18.6556 2.96522 18.3571 2.66675 17.9889 2.66675H13.9889ZM6.66667 4.00008H12V5.33341C12 6.06979 12.597 6.66675 13.3333 6.66675H18.6667C19.403 6.66675 20 6.06979 20 5.33341V4.00008H25.3333C26.8061 4.00008 28 5.19399 28 6.66675V25.3334C28 26.8062 26.8061 28.0001 25.3333 28.0001H6.66667C5.19391 28.0001 4 26.8062 4 25.3334V6.66675C4 5.19399 5.19391 4.00008 6.66667 4.00008ZM9.50453 11.7514V9.63138H13.1979V19.3647H10.8245V11.7514H9.50453ZM14.7576 14.3647C14.7576 12.8358 15.0509 11.6314 15.6376 10.7514C16.2331 9.87138 17.1887 9.43138 18.5042 9.43138C19.8198 9.43138 20.7709 9.87138 21.3576 10.7514C21.9531 11.6314 22.2509 12.8358 22.2509 14.3647C22.2509 15.9114 21.9531 17.1247 21.3576 18.0047C20.7709 18.8847 19.8198 19.3247 18.5042 19.3247C17.1887 19.3247 16.2331 18.8847 15.6376 18.0047C15.0509 17.1247 14.7576 15.9114 14.7576 14.3647ZM20.0109 14.3647C20.0109 13.4669 19.9131 12.778 19.7176 12.298C19.522 11.8092 19.1176 11.5647 18.5042 11.5647C17.8909 11.5647 17.4864 11.8092 17.2909 12.298C17.0953 12.778 16.9976 13.4669 16.9976 14.3647C16.9976 14.9692 17.0331 15.4714 17.1042 15.8714C17.1753 16.2625 17.3176 16.5825 17.5309 16.8314C17.7531 17.0714 18.0776 17.1914 18.5042 17.1914C18.9309 17.1914 19.2509 17.0714 19.4642 16.8314C19.6864 16.5825 19.8331 16.2625 19.9042 15.8714C19.9753 15.4714 20.0109 14.9692 20.0109 14.3647ZM8.26081 21.3615C8.11353 21.3615 7.99414 21.4808 7.99414 21.6281V23.7615C7.99414 23.9087 8.11353 24.0281 8.26081 24.0281H23.7275C23.8748 24.0281 23.9941 23.9087 23.9941 23.7615V21.6281C23.9941 21.4808 23.8748 21.3615 23.7275 21.3615H8.26081Z" fill="#4FBA69"/>
</svg>
