<svg width="32" height="32" viewBox="0 0 32 32" fill="none" xmlns="http://www.w3.org/2000/svg">
<path fill-rule="evenodd" clip-rule="evenodd" d="M10.6666 8.81665C10.6666 8.26437 11.1143 7.81665 11.6666 7.81665H20.3333C20.8855 7.81665 21.3333 8.26437 21.3333 8.81665V9.83114H24.3333C24.8855 9.83114 25.3333 10.2789 25.3333 10.8311V12H26.9999C27.5522 12 27.9999 12.4477 27.9999 13V22.6667H29.6666C30.2189 22.6667 30.6666 23.1144 30.6666 23.6667V26.6667H1.33325V23.6667C1.33325 23.1144 1.78097 22.6667 2.33325 22.6667H3.99992V13C3.99992 12.4477 4.44763 12 4.99992 12H6.66659V10.8311C6.66659 10.2789 7.1143 9.83114 7.66659 9.83114H10.6666V8.81665ZM14.4889 13.3332C14.2127 13.3332 13.9889 13.5571 13.9889 13.8332V22.6666H16.6555V13.8332C16.6555 13.5571 16.4317 13.3332 16.1555 13.3332H14.4889ZM19.9999 13.8332C19.9999 13.5571 20.2238 13.3332 20.4999 13.3332H22.1666C22.4427 13.3332 22.6666 13.5571 22.6666 13.8332V22.6666H19.9999V13.8332ZM8.49992 13.3332C8.22378 13.3332 7.99992 13.5571 7.99992 13.8332V22.6666H10.6666V13.8332C10.6666 13.5571 10.4427 13.3332 10.1666 13.3332H8.49992Z" fill="#4FBA69"/>
<path fill-rule="evenodd" clip-rule="evenodd" d="M16 2.66671L16 9.33337L14.6666 9.33337L14.6666 2.66671L16 2.66671Z" fill="#4FBA69"/>
<path d="M14.6666 3.06792C14.6666 3.06792 15.5373 2.66663 16.4262 2.66663C17.3151 2.66663 17.8606 3.28437 18.8797 3.28437C19.9817 3.28437 21.3333 2.82531 21.3333 2.82531L19.9817 4.51644L21.3333 6.20756C21.3333 6.20756 19.9817 6.66663 18.8797 6.66663C17.8606 6.66663 17.3151 6.04888 16.4262 6.04888C15.5373 6.04888 14.6666 6.45018 14.6666 6.45018V3.06792Z" fill="#4FBA69"/>
</svg>
