<svg width="32" height="32" viewBox="0 0 32 32" fill="none" xmlns="http://www.w3.org/2000/svg">
<path fill-rule="evenodd" clip-rule="evenodd" d="M6.66671 2.66675C5.93033 2.66675 5.33337 3.2637 5.33337 4.00008V28.0001C5.33337 28.7365 5.93033 29.3334 6.66671 29.3334H15.3334V26.099H15.3371L15.3334 26.0953L26.6667 14.762V4.00008C26.6667 3.2637 26.0698 2.66675 25.3334 2.66675H6.66671ZM10.9334 5.33341C10.7861 5.33341 10.6667 5.45281 10.6667 5.60008V7.73341C10.6667 7.88069 10.7861 8.00008 10.9334 8.00008H23.7275C23.8748 8.00008 23.9942 7.88069 23.9942 7.73341V5.60008C23.9942 5.45281 23.8748 5.33341 23.7275 5.33341H10.9334ZM7.99418 10.2667C7.99418 10.1195 8.11357 10.0001 8.26085 10.0001H23.7275C23.8748 10.0001 23.9942 10.1195 23.9942 10.2667V12.4001C23.9942 12.5474 23.8748 12.6667 23.7275 12.6667H8.26085C8.11357 12.6667 7.99418 12.5474 7.99418 12.4001V10.2667ZM29.1603 20.0885C29.4203 19.8285 29.4203 19.4085 29.1603 19.1485L27.6003 17.5885C27.3403 17.3285 26.9203 17.3285 26.6603 17.5885L25.4403 18.8085L27.9403 21.3085L29.1603 20.0885ZM17.3536 26.8951V29.3951H19.8536L27.2269 22.0218L24.7269 19.5218L17.3536 26.8951Z" fill="#4FBA69"/>
</svg>
