<svg width="32" height="32" viewBox="0 0 32 32" fill="none" xmlns="http://www.w3.org/2000/svg">
<path fill-rule="evenodd" clip-rule="evenodd" d="M16 26.6666C21.8911 26.6666 26.6667 21.891 26.6667 15.9999C26.6667 10.1088 21.8911 5.33317 16 5.33317C10.1089 5.33317 5.33329 10.1088 5.33329 15.9999C5.33329 21.891 10.1089 26.6666 16 26.6666ZM16 29.3333C23.3638 29.3333 29.3334 23.3637 29.3334 15.9999C29.3334 8.63606 23.3638 2.6665 16 2.6665C8.63619 2.6665 2.66663 8.63606 2.66663 15.9999C2.66663 23.3637 8.63619 29.3333 16 29.3333ZM26.6643 15.9977C26.6643 21.8875 21.8897 26.6621 16 26.6621H15.9942L15.9879 26.6621C13.0479 26.6556 10.6666 24.2703 10.6666 21.3288C10.6666 18.3873 13.0479 16.002 15.9879 15.9955V15.9955L16 15.9955C18.9455 15.9955 21.3333 13.6076 21.3333 10.6621C21.3333 7.82204 19.1133 5.50044 16.314 5.33789C22.0585 5.50402 26.6643 10.213 26.6643 15.9977ZM16.0001 22.949C16.895 22.949 17.6204 22.2236 17.6204 21.3288C17.6204 20.4339 16.895 19.7085 16.0001 19.7085C15.1053 19.7085 14.3798 20.4339 14.3798 21.3288C14.3798 22.2236 15.1053 22.949 16.0001 22.949ZM16.0001 12.2915C16.895 12.2915 17.6204 11.5661 17.6204 10.6712C17.6204 9.77637 16.895 9.05094 16.0001 9.05094C15.1053 9.05094 14.3798 9.77637 14.3798 10.6712C14.3798 11.5661 15.1053 12.2915 16.0001 12.2915Z" fill="#4FBA69"/>
</svg>
