<svg width="32" height="32" viewBox="0 0 32 32" fill="none" xmlns="http://www.w3.org/2000/svg">
<path fill-rule="evenodd" clip-rule="evenodd" d="M4.71867 2.72449C5.3106 2.72438 6.76927 2.72412 7.87537 3.64961C8.7694 3.00881 9.84415 2.72449 10.7764 2.72449C11.8436 2.72449 12.9945 3.06934 13.844 3.78101C14.7038 3.00089 15.8649 2.72449 16.8529 2.72449C17.9331 2.72449 19.0624 3.01478 19.9276 3.7394C20.8029 4.47246 21.3687 5.61744 21.3687 7.24034V9.01457C23.1566 8.60985 25.4916 9.02279 26.7579 10.9223L26.7596 10.9248C27.4857 12.0354 27.7437 13.5794 27.5918 15.2605C27.4395 16.9467 26.8725 18.8044 25.9068 20.5757C24.8314 22.6486 23.3855 24.2919 21.7036 25.4276C21.8114 25.6389 21.9142 25.8299 22.0148 25.9828C22.2719 26.2976 22.6478 26.478 23.0083 26.478C23.3778 26.478 23.7766 26.3091 24.0802 25.9317C24.3838 25.5542 24.6061 24.9485 24.5692 24.0632L24.5547 23.716H27.4452V24.0493C27.4452 27.4491 25.2634 29.2754 23.0083 29.2754C21.7247 29.2754 20.6053 28.7573 19.7534 27.735L19.7492 27.7298C19.4873 27.4025 19.2715 27.0682 19.107 26.6888C17.9757 27.0981 16.7827 27.3025 15.5902 27.3025H15.2569V24.4262H15.5902C16.633 24.4262 17.6196 24.1683 18.4924 23.8247V7.24034C18.4924 6.82454 18.4329 6.41987 18.2196 6.12278C18.0224 5.84809 17.6451 5.60079 16.8529 5.60079C16.0041 5.60079 15.6526 5.90913 15.4851 6.20226C15.2973 6.53089 15.2922 6.92012 15.2922 7.16143V23.1989H12.4159V7.24034C12.4159 6.82454 12.3564 6.41987 12.1431 6.12278C11.9459 5.84809 11.5686 5.60079 10.7764 5.60079C9.92766 5.60079 9.57609 5.90913 9.40859 6.20226C9.2208 6.53088 9.21576 6.92012 9.21576 7.16143V23.1989H6.33946V7.24034C6.33946 6.30957 6.15943 5.96297 5.95736 5.80845C5.85061 5.72682 5.7043 5.67128 5.49092 5.63895C5.27477 5.6062 5.01707 5.60079 4.69991 5.60079H4.36658V2.72449H4.69991L4.71866 2.72449H4.71867ZM21.2901 21.9294V12.0627C21.3716 12.013 21.5011 11.9464 21.6767 11.886C21.9556 11.7902 22.3234 11.72 22.7442 11.755L22.758 11.7562H22.7718C23.2043 11.7562 23.9273 11.9046 24.3083 12.474C24.676 13.0441 24.8053 14.0492 24.6412 15.2853C24.4793 16.504 24.04 17.8829 23.3505 19.1488C22.9489 19.8181 22.2783 20.9133 21.2901 21.9294Z" fill="#4FBA69"/>
</svg>
