<svg width="32" height="32" viewBox="0 0 32 32" fill="none" xmlns="http://www.w3.org/2000/svg">
<path fill-rule="evenodd" clip-rule="evenodd" d="M9.7828 4.86879H17.399C16.9298 5.83535 16.6667 6.92048 16.6667 8.06706C16.6667 8.49888 16.704 8.92199 16.7756 9.33333H6.66667V25.3382H24.4644V15.3859C25.4136 15.3266 26.3139 15.0867 27.1312 14.7002V25.6869C27.1312 26.9591 26.0903 28 24.8181 28H6.31312C5.0409 28 4 26.9591 4 25.6869V7.18191C4 5.90969 5.0409 4.86879 6.31312 4.86879H7.46968V2.55566H9.7828V4.86879ZM9.25716 15.2778H11.7806V17.8012H9.25716V15.2778ZM16.8274 15.2778H14.304V17.8012H16.8274V15.2778ZM19.3506 15.2778H21.874V17.8012H19.3506V15.2778ZM28.808 9.53228C28.9167 9.53228 29.0247 9.52946 29.1319 9.52388C28.4981 11.7613 26.4405 13.4005 24 13.4005C21.0545 13.4005 18.6667 11.0126 18.6667 8.06712C18.6667 5.57495 20.376 3.48203 22.6863 2.89681C22.6733 3.05981 22.6667 3.22461 22.6667 3.39096C22.6667 6.78272 25.4162 9.53228 28.808 9.53228Z" fill="#4FBA69"/>
</svg>
