<svg width="32" height="32" viewBox="0 0 32 32" fill="none" xmlns="http://www.w3.org/2000/svg">
<path fill-rule="evenodd" clip-rule="evenodd" d="M7.89565 8.70179H28.8811L27.6479 4.09939C27.5526 3.74374 27.187 3.53269 26.8314 3.62798L7.89565 8.70179ZM2.66675 11.3334C2.66675 10.9652 2.96522 10.6667 3.33341 10.6667H28.6667C29.0349 10.6667 29.3334 10.9652 29.3334 11.3334V15.3334C27.4925 15.3334 26.0001 16.8258 26.0001 18.6667C26.0001 20.5077 27.4925 22 29.3334 22V26C29.3334 26.3682 29.0349 26.6667 28.6667 26.6667H3.33341C2.96522 26.6667 2.66675 26.3682 2.66675 26V22C4.5077 22 6.00008 20.5077 6.00008 18.6667C6.00008 16.8258 4.5077 15.3334 2.66675 15.3334V11.3334ZM21.3399 12.0033H24.0066V14.67H21.3399V12.0033ZM24.0066 17.3334H21.3399V20H24.0066V17.3334ZM21.3399 22.6641H24.0066V25.3308H21.3399V22.6641Z" fill="#4FBA69"/>
</svg>
