<svg width="32" height="32" viewBox="0 0 32 32" fill="none" xmlns="http://www.w3.org/2000/svg">
<path fill-rule="evenodd" clip-rule="evenodd" d="M2.27299 8.5276C2.23456 8.25414 2.42509 8.00131 2.69854 7.96288L28.1066 4.39201C28.38 4.35358 28.6328 4.54411 28.6713 4.81756L29.0378 7.42527C29.0531 7.53465 28.9769 7.63578 28.8675 7.65116L2.71423 11.3268H29.1332C29.2436 11.3268 29.3332 11.4163 29.3332 11.5268V25.6666C29.3332 26.2189 28.8854 26.6666 28.3332 26.6666H3.66649C3.11421 26.6666 2.66649 26.2189 2.66649 25.6666V11.3275L2.27299 8.5276ZM26.4665 13.9931H5.33316V23.5004C5.33316 23.7765 5.55702 24.0004 5.83316 24.0004H26.1665C26.4426 24.0004 26.6665 23.7765 26.6665 23.5004V14.1931C26.6665 14.0826 26.5769 13.9931 26.4665 13.9931ZM16.181 16.2039C16.1091 16.0502 15.8905 16.0502 15.8187 16.2039L15.0464 17.8555C15.0172 17.9179 14.9581 17.9608 14.8898 17.9693L13.0804 18.1934C12.912 18.2142 12.8444 18.4221 12.9684 18.538L14.3006 19.7828C14.3508 19.8298 14.3734 19.8993 14.3604 19.9669L14.0143 21.757C13.9821 21.9236 14.159 22.0521 14.3075 21.97L15.903 21.0877C15.9633 21.0544 16.0364 21.0544 16.0966 21.0877L17.6922 21.97C17.8407 22.0521 18.0175 21.9236 17.9853 21.757L17.6393 19.9669C17.6262 19.8993 17.6488 19.8298 17.6991 19.7828L19.0312 18.538C19.1552 18.4221 19.0877 18.2142 18.9193 18.1934L17.1098 17.9693C17.0416 17.9608 16.9824 17.9179 16.9533 17.8555L16.181 16.2039Z" fill="#4FBA69"/>
</svg>
