<svg width="32" height="32" viewBox="0 0 32 32" fill="none" xmlns="http://www.w3.org/2000/svg">
<path d="M16.4735 18.8599L16.3735 18.7799C16.3363 18.7547 16.296 18.7345 16.2535 18.7199L16.1335 18.6666C16.0254 18.644 15.9133 18.6486 15.8074 18.68C15.7016 18.7114 15.6051 18.7687 15.5268 18.8466C15.4679 18.9114 15.4206 18.9858 15.3868 19.0666C15.3364 19.1881 15.323 19.3217 15.3483 19.4508C15.3737 19.5799 15.4366 19.6985 15.5293 19.7919C15.6219 19.8853 15.7401 19.9491 15.869 19.9755C15.9979 20.0018 16.1316 19.9894 16.2535 19.9399C16.3332 19.9013 16.4072 19.8519 16.4735 19.7933C16.566 19.6995 16.6287 19.5805 16.6536 19.4511C16.6785 19.3218 16.6645 19.188 16.6135 19.0666C16.5803 18.9895 16.5328 18.9194 16.4735 18.8599ZM18.6668 9.33325H13.3335C12.8031 9.33325 12.2944 9.54397 11.9193 9.91904C11.5442 10.2941 11.3335 10.8028 11.3335 11.3333V20.6666C11.3335 21.197 11.5442 21.7057 11.9193 22.0808C12.2944 22.4559 12.8031 22.6666 13.3335 22.6666H18.6668C19.1973 22.6666 19.706 22.4559 20.081 22.0808C20.4561 21.7057 20.6668 21.197 20.6668 20.6666V11.3333C20.6668 10.8028 20.4561 10.2941 20.081 9.91904C19.706 9.54397 19.1973 9.33325 18.6668 9.33325ZM19.3335 20.6666C19.3335 20.8434 19.2633 21.013 19.1382 21.138C19.0132 21.263 18.8436 21.3333 18.6668 21.3333H13.3335C13.1567 21.3333 12.9871 21.263 12.8621 21.138C12.7371 21.013 12.6668 20.8434 12.6668 20.6666V11.3333C12.6668 11.1564 12.7371 10.9869 12.8621 10.8618C12.9871 10.7368 13.1567 10.6666 13.3335 10.6666H18.6668C18.8436 10.6666 19.0132 10.7368 19.1382 10.8618C19.2633 10.9869 19.3335 11.1564 19.3335 11.3333V20.6666Z" fill="#848687"/>
<rect x="0.5" y="0.5" width="31" height="31" rx="15.5" stroke="#848687"/>
</svg>
