<svg width="32" height="32" viewBox="0 0 32 32" fill="none" xmlns="http://www.w3.org/2000/svg">
<path fill-rule="evenodd" clip-rule="evenodd" d="M6.66671 2.67529C5.93033 2.67529 5.33337 3.27225 5.33337 4.00863V28.0086C5.33337 28.745 5.93033 29.342 6.66671 29.342H7.33337V2.67529H6.66671ZM9.33337 2.67529H25.3334C26.0698 2.67529 26.6667 3.27225 26.6667 4.00863V28.0086C26.6667 28.745 26.0698 29.342 25.3334 29.342H9.33337V2.67529ZM12.6667 14.0191C12.6667 15.1237 13.5621 16.0191 14.6667 16.0191V18.6858H21.3334V16.0191C22.4379 16.0191 23.3334 15.1237 23.3334 14.0191C23.3334 12.9146 22.4379 12.0191 21.3334 12.0191C21.0056 12.0191 20.6963 12.098 20.4232 12.2377C20.0011 11.3217 19.0748 10.6858 18 10.6858C16.9252 10.6858 15.9989 11.3217 15.5768 12.2377C15.3038 12.098 14.9945 12.0191 14.6667 12.0191C13.5621 12.0191 12.6667 12.9146 12.6667 14.0191ZM21.3334 21.0648V19.9981H14.6667V21.0648C14.6667 21.2121 14.7861 21.3315 14.9334 21.3315H21.0667C21.214 21.3315 21.3334 21.2121 21.3334 21.0648Z" fill="#4FBA69"/>
</svg>
