<svg width="32" height="32" viewBox="0 0 32 32" fill="none" xmlns="http://www.w3.org/2000/svg">
<path d="M22.4796 21.5425L20.0078 19.0888C20.9672 17.8915 21.4319 16.3719 21.3062 14.8423C21.1805 13.3127 20.4739 11.8895 19.3318 10.8652C18.1897 9.84094 16.6989 9.29352 15.1659 9.3355C13.6329 9.37748 12.1742 10.0057 11.0898 11.0909C10.0054 12.1761 9.37769 13.6359 9.33574 15.1701C9.29379 16.7043 9.8408 18.1962 10.8643 19.3392C11.8878 20.4821 13.3099 21.1892 14.8384 21.315C16.3668 21.4409 17.8853 20.9758 19.0816 20.0156L21.5335 22.4694C21.5955 22.5319 21.6691 22.5815 21.7503 22.6153C21.8315 22.6492 21.9186 22.6666 22.0066 22.6666C22.0945 22.6666 22.1816 22.6492 22.2628 22.6153C22.344 22.5815 22.4177 22.5319 22.4796 22.4694C22.5997 22.345 22.6668 22.1789 22.6668 22.0059C22.6668 21.833 22.5997 21.6669 22.4796 21.5425ZM15.3439 20.0156C14.4214 20.0156 13.5197 19.7419 12.7527 19.229C11.9858 18.7161 11.388 17.9872 11.035 17.1343C10.682 16.2815 10.5896 15.343 10.7696 14.4376C10.9495 13.5322 11.3937 12.7006 12.046 12.0478C12.6982 11.395 13.5293 10.9505 14.434 10.7704C15.3387 10.5903 16.2764 10.6828 17.1287 11.036C17.9809 11.3893 18.7093 11.9875 19.2217 12.7551C19.7342 13.5226 20.0078 14.425 20.0078 15.3482C20.0078 16.5861 19.5164 17.7732 18.6417 18.6486C17.7671 19.5239 16.5808 20.0156 15.3439 20.0156Z" fill="#848687"/>
<rect x="0.5" y="0.5" width="31" height="31" rx="15.5" stroke="#848687"/>
</svg>
