<svg width="32" height="32" viewBox="0 0 32 32" fill="none" xmlns="http://www.w3.org/2000/svg">
<path fill-rule="evenodd" clip-rule="evenodd" d="M6.66671 2.66675C5.93033 2.66675 5.33337 3.2637 5.33337 4.00008V28.0001C5.33337 28.7365 5.93033 29.3334 6.66671 29.3334H19.2531L14.4966 24.577L18.9549 20.1187L21.7835 22.9474L26.6667 18.0642V4.00008C26.6667 3.2637 26.0698 2.66675 25.3334 2.66675H6.66671ZM10.9334 5.33341C10.7861 5.33341 10.6667 5.45281 10.6667 5.60008V7.73341C10.6667 7.88069 10.7861 8.00008 10.9334 8.00008H23.7275C23.8748 8.00008 23.9942 7.88069 23.9942 7.73341V5.60008C23.9942 5.45281 23.8748 5.33341 23.7275 5.33341H10.9334ZM7.99418 10.2667C7.99418 10.1195 8.11357 10.0001 8.26085 10.0001H23.7275C23.8748 10.0001 23.9942 10.1195 23.9942 10.2667V12.4001C23.9942 12.5474 23.8748 12.6667 23.7275 12.6667H8.26085C8.11357 12.6667 7.99418 12.5474 7.99418 12.4001V10.2667ZM27.2452 20.3025C27.3493 20.1984 27.5182 20.1984 27.6223 20.3025L29.1308 21.811C29.235 21.9151 29.235 22.084 29.1308 22.1881L22.2483 29.0706C22.1049 29.2141 21.9124 29.2785 21.7249 29.2639C21.5719 29.252 21.4223 29.1876 21.3053 29.0706L17.2512 25.0165C17.1471 24.9124 17.1471 24.7436 17.2512 24.6394L18.7597 23.1309C18.8639 23.0268 19.0327 23.0268 19.1369 23.1309L21.7768 25.7709L27.2452 20.3025Z" fill="#4FBA69"/>
</svg>
