<svg width="32" height="32" viewBox="0 0 32 32" fill="none" xmlns="http://www.w3.org/2000/svg">
<path fill-rule="evenodd" clip-rule="evenodd" d="M11.9738 5.54153C11.7961 5.43889 11.7961 5.18229 11.9738 5.07965L16.1738 2.65478C16.3516 2.55214 16.5738 2.68044 16.5738 2.88572V4.34427C16.8161 4.35695 17.0577 4.37717 17.2982 4.40487C18.371 4.5284 19.4235 4.80067 20.4252 5.21556C21.8392 5.80129 23.1241 6.65981 24.2064 7.7421C25.2887 8.82439 26.1472 10.1093 26.7329 11.5233C27.1478 12.525 27.4201 13.5775 27.5436 14.6503C27.5945 15.092 27.6201 15.5372 27.6201 15.9836H27.0566L26.2868 15.9836H25.7232C25.7232 14.7021 25.4708 13.4332 24.9804 12.2492C24.49 11.0653 23.7712 9.98955 22.8651 9.0834C21.9589 8.17726 20.8832 7.45846 19.6993 6.96806C18.7032 6.55549 17.647 6.31136 16.5738 6.24426V7.73546C16.5738 7.94074 16.3516 8.06904 16.1738 7.9664L11.9738 5.54153ZM15.4142 29.0045V27.6259C15.1523 27.6135 14.8916 27.5923 14.6325 27.5625C12.0321 27.2631 9.59346 26.0944 7.72429 24.2252C5.85512 22.3561 4.68639 19.9174 4.38702 17.3171C4.33631 16.8766 4.31055 16.4315 4.31055 15.9837H4.9285H5.64388H6.26183C6.26183 18.5574 7.28421 21.0256 9.10406 22.8455C10.7935 24.5349 13.0417 25.537 15.4142 25.672V24.1548C15.4142 23.9495 15.6365 23.8212 15.8142 23.9238L20.0142 26.3487C20.192 26.4514 20.192 26.708 20.0142 26.8106L15.8142 29.2355C15.6365 29.3381 15.4142 29.2098 15.4142 29.0045ZM23.836 26.3528L23.276 28.0062H20.8893L24.276 18.6462H26.916L30.3027 28.0062H27.8893L27.3293 26.3528H23.836ZM26.7427 24.5928L25.5827 21.1662L24.436 24.5928H26.7427ZM8.6344 15.9999C8.6344 11.9341 11.9342 8.63435 16 8.63435C20.0658 8.63435 23.3656 11.9341 23.3656 15.9999C23.3656 20.0657 20.0658 23.3655 16 23.3655C11.9342 23.3655 8.6344 20.0657 8.6344 15.9999ZM10.6667 16C10.6667 18.72 12.7 20.96 15.3333 21.2867V20C14.6 20 14 19.4 14 18.6667V18L10.8067 14.8067C10.72 15.1933 10.6667 15.5867 10.6667 16ZM19.9333 19.5933C19.76 19.0533 19.2667 18.6667 18.6667 18.6667H18V16.6667C18 16.3 17.7 16 17.3333 16H13.3333V14.6667H14.6667C15.0333 14.6667 15.3333 14.3667 15.3333 14V12.6667H16.6667C17.4 12.6667 18 12.0667 18 11.3333V11.06C19.9533 11.8533 21.3333 13.7667 21.3333 16C21.3333 17.3867 20.8 18.6467 19.9333 19.5933Z" fill="#4FBA69"/>
</svg>
