<svg width="32" height="32" viewBox="0 0 32 32" fill="none" xmlns="http://www.w3.org/2000/svg">
<path fill-rule="evenodd" clip-rule="evenodd" d="M11.3343 5.63372C11.3343 5.43993 11.4453 5.25935 11.6291 5.15405L15.3093 3.04621C15.7198 2.81109 16.2242 2.81109 16.6347 3.04621L20.3148 5.15405C20.4987 5.25935 20.6097 5.43993 20.6097 5.63371V9.33325H25.3294C26.0658 9.33325 26.6627 9.93021 26.6627 10.6666V22.6666L17.9889 22.6666V13.9999C17.9889 13.6317 17.6904 13.3333 17.3222 13.3333H14.6555C14.2873 13.3333 13.9889 13.6317 13.9889 13.9999V22.6666L5.33329 22.6666V10.6666C5.33329 9.93021 5.93025 9.33325 6.66663 9.33325H11.3343V5.63372ZM13.9889 22.6666H17.9889H28C28.7363 22.6666 29.3333 23.2635 29.3333 23.9999V26.6666H2.66663V23.9999C2.66663 23.2635 3.26358 22.6666 3.99996 22.6666H13.9889ZM21.3118 13.3333C20.9436 13.3333 20.6451 13.6317 20.6451 13.9999V15.3333C20.6451 15.7014 20.9436 15.9999 21.3118 15.9999H23.9785C24.3467 15.9999 24.6451 15.7014 24.6451 15.3333V13.9999C24.6451 13.6317 24.3467 13.3333 23.9785 13.3333H21.3118ZM7.33329 13.9999C7.33329 13.6317 7.63177 13.3333 7.99996 13.3333H10.6666C11.0348 13.3333 11.3333 13.6317 11.3333 13.9999V15.3333C11.3333 15.7014 11.0348 15.9999 10.6666 15.9999H7.99996C7.63177 15.9999 7.33329 15.7014 7.33329 15.3333V13.9999ZM21.3118 17.3333C20.9436 17.3333 20.6451 17.6317 20.6451 17.9999V19.3333C20.6451 19.7014 20.9436 19.9999 21.3118 19.9999H23.9785C24.3467 19.9999 24.6451 19.7014 24.6451 19.3333V17.9999C24.6451 17.6317 24.3467 17.3333 23.9785 17.3333H21.3118ZM7.33329 17.9999C7.33329 17.6317 7.63177 17.3333 7.99996 17.3333H10.6666C11.0348 17.3333 11.3333 17.6317 11.3333 17.9999V19.3333C11.3333 19.7014 11.0348 19.9999 10.6666 19.9999H7.99996C7.63177 19.9999 7.33329 19.7014 7.33329 19.3333V17.9999ZM15.9892 9.07438C17.0938 9.07438 17.9892 8.17895 17.9892 7.07438C17.9892 5.96981 17.0938 5.07438 15.9892 5.07438C14.8846 5.07438 13.9892 5.96981 13.9892 7.07438C13.9892 8.17895 14.8846 9.07438 15.9892 9.07438Z" fill="#4FBA69"/>
</svg>
