<svg width="32" height="32" viewBox="0 0 32 32" fill="none" xmlns="http://www.w3.org/2000/svg">
<path fill-rule="evenodd" clip-rule="evenodd" d="M2.66675 7.31537C2.66675 6.2108 3.56218 5.31537 4.66675 5.31537H27.3334C28.438 5.31537 29.3334 6.2108 29.3334 7.31537V19.982C29.3334 21.0866 28.438 21.982 27.3334 21.982H4.66675C3.56218 21.982 2.66675 21.0866 2.66675 19.982V7.31537ZM18.5914 12.9618C19.0491 13.3054 19.0491 13.992 18.5914 14.3356L14.4398 17.4515C13.8737 17.8764 13.0655 17.4725 13.0655 16.7647V10.5327C13.0655 9.82489 13.8737 9.42097 14.4398 9.84587L18.5914 12.9618ZM3.33341 23.99C2.96522 23.99 2.66675 24.2885 2.66675 24.6567V25.99C2.66675 26.3582 2.96522 26.6567 3.33341 26.6567H28.6668C29.035 26.6567 29.3334 26.3582 29.3334 25.99V24.6567C29.3334 24.2885 29.035 23.99 28.6668 23.99H3.33341Z" fill="#4FBA69"/>
</svg>
