<svg width="32" height="32" viewBox="0 0 32 32" fill="none" xmlns="http://www.w3.org/2000/svg">
<path fill-rule="evenodd" clip-rule="evenodd" d="M2.77663 12.378C2.77663 12.378 2.54072 11.6617 3.03795 11.3509C3.48121 11.0739 13.3875 4.46878 15.5329 3.03813C15.7844 2.87036 16.0975 2.86836 16.3511 3.03293C18.498 4.42557 28.348 10.8199 28.8801 11.2535C29.4774 11.7402 29.1365 12.454 29.1365 12.454L29.1344 12.4549C29.1077 12.5639 29.0331 12.6622 28.9137 12.7124L25.0674 14.3314C24.3058 14.1126 23.5012 13.9953 22.6692 13.9953C18.2719 13.9953 14.6395 17.2702 14.0779 21.5141C13.2376 21.2274 12.2647 20.9124 11.4718 20.7024C10.2445 20.3774 8.50247 20.0534 7.57866 19.89C7.21352 19.8255 6.94642 19.5091 6.94642 19.1383V14.3294L3.00561 12.6585C2.87899 12.6048 2.80299 12.4971 2.78117 12.38L2.77663 12.378ZM25.05 13.6555V12.2175C25.05 12.2175 22.6435 10.2795 15.9678 10.2795C9.29217 10.2795 6.93606 12.2242 6.93606 12.2242V13.6923C6.93606 13.6923 10.1322 11.821 15.9678 11.821C21.8034 11.821 25.05 13.6555 25.05 13.6555ZM22.6667 15.9999C18.9867 15.9999 16 18.9866 16 22.6666C16 26.3466 18.9867 29.3333 22.6667 29.3333C26.3467 29.3333 29.3333 26.3466 29.3333 22.6666C29.3333 18.9866 26.3467 15.9999 22.6667 15.9999ZM21.3333 19.6666L25.3333 22.6666L21.3333 25.6666V19.6666Z" fill="#4FBA69"/>
</svg>
