<svg width="32" height="32" viewBox="0 0 32 32" fill="none" xmlns="http://www.w3.org/2000/svg">
<path fill-rule="evenodd" clip-rule="evenodd" d="M7.78923 14.2687C8.38334 10.9991 10.5673 8.2835 13.5112 6.95204C12.5342 5.72247 11.0258 4.93408 9.33333 4.93408C6.38781 4.93408 4 7.3219 4 10.2674C4 12.1687 4.99492 13.8377 6.49254 14.782C6.89892 14.5632 7.33342 14.3898 7.78923 14.2687ZM17.6279 24.0682L23.9584 24.0682L24.0003 24.0684L24.0423 24.0682H24.0636V24.068C26.98 24.0341 29.3337 21.6594 29.3337 18.735C29.3337 16.2095 27.5782 14.0939 25.2209 13.542C24.1633 10.3617 21.1635 8.0682 17.6279 8.0682C13.2097 8.0682 9.62793 11.6499 9.62793 16.0682L9.62794 16.0789C9.53077 16.0718 9.43263 16.0682 9.33366 16.0682C7.12452 16.0682 5.33366 17.8591 5.33366 20.0682C5.33366 22.2562 7.09042 24.0339 9.27038 24.0677V24.0682L9.33366 24.0682H17.6279Z" fill="#4FBA69"/>
</svg>
