<svg width="166" height="40" viewBox="0 0 166 40" fill="none" xmlns="http://www.w3.org/2000/svg">
<path d="M40.1319 20C40.1319 31.0386 31.1409 40 20.0659 40C8.99097 40 0 31.0386 0 20C0 9.05044 8.81234 0.148368 19.7682 0C19.8575 0 19.9766 0 20.0659 0H38.554C38.5838 0 38.5838 0 38.6135 0C39.209 0 39.6853 0.474779 39.6853 1.06825C39.6853 1.24629 39.6258 1.42433 39.5364 1.5727L36.5593 8.63502C38.7922 11.8694 40.1319 15.7863 40.1319 20Z" fill="white"/>
<path d="M25.3077 4.69912L22.6586 11.2178C22.5137 11.5891 22.0791 11.7748 21.6858 11.6304C21.3754 11.5066 21.2098 11.2178 21.2305 10.9084L21.5823 3.8946C21.6444 2.82191 22.5551 2.01739 23.6106 2.05865C24.6868 2.12053 25.494 3.0282 25.4526 4.08026C25.4319 4.28654 25.3698 4.49283 25.3077 4.69912Z" fill="#F16037"/>
<path fill-rule="evenodd" clip-rule="evenodd" d="M31.8272 1.66663H36.1528C36.6288 1.66663 37.0842 2.14109 37.0635 2.57429C37.0635 3.08558 36.819 3.29693 36.6527 3.44066C36.6445 3.4477 36.6366 3.45458 36.6288 3.46132L26.2805 13.4043V13.425C25.9494 13.7757 25.3905 13.7757 25.0594 13.425C24.7903 13.1568 24.7489 12.7649 24.9145 12.4348C24.9145 12.4348 29.861 3.21378 30.2543 2.49177C30.6475 1.76977 31.4961 1.66663 31.8272 1.66663ZM38.2225 19.8608C38.2225 29.9276 30.0473 38.076 19.9473 38.076C9.86801 38.076 1.67212 29.9276 1.67212 19.8608C1.67212 10.6811 8.48133 3.08973 17.3395 1.83138C17.3783 1.82171 17.4172 1.81657 17.4538 1.81171C17.4954 1.80621 17.5342 1.80108 17.5672 1.79012C17.8569 1.81075 18.1053 1.99641 18.1881 2.28521L18.2088 2.55338L18.9125 10.743L18.9332 10.9699C18.9125 11.2587 18.7055 11.4856 18.4364 11.5681C18.3951 11.5681 18.3537 11.5681 18.3123 11.5887C14.4213 12.352 11.4617 15.7764 11.4617 19.8815C11.4617 24.5436 15.2492 28.3392 19.9473 28.3392C24.6248 28.3392 28.4123 24.5642 28.433 19.9227V19.9021V19.8608V19.8196C28.4536 19.5308 28.6399 19.3039 28.909 19.2214L29.0332 19.2007L37.2497 17.5092L37.436 17.4679H37.4774C37.7879 17.4679 38.0569 17.6742 38.1397 17.9836C38.1397 18.0124 38.1442 18.0411 38.1489 18.0719C38.1545 18.1074 38.1604 18.1457 38.1604 18.1899C38.2018 18.7056 38.2225 19.2832 38.2225 19.8608ZM25.7424 19.8611C25.7424 23.0379 23.1553 25.6371 19.968 25.6371C16.7807 25.6371 14.1729 23.0585 14.1729 19.8611C14.1729 16.6843 16.76 14.085 19.968 14.085C23.1553 14.1057 25.7424 16.6843 25.7424 19.8611Z" fill="url(#paint0_linear)"/>
<path d="M35.2215 14.5801L28.5157 16.7461C28.1225 16.8699 27.7086 16.6636 27.5844 16.2717C27.4809 15.9622 27.6051 15.6322 27.8327 15.4465L33.4415 11.197C34.2901 10.5575 35.5112 10.7225 36.1528 11.5683C36.7944 12.4141 36.6288 13.6312 35.7803 14.2707C35.6147 14.4151 35.4077 14.5182 35.2215 14.5801Z" fill="#F16037"/>
<path d="M61.5136 28.7838H65.8715C65.3522 30.4785 64.3361 31.8794 62.8232 32.9413C61.3104 34.0033 59.662 34.5456 57.8557 34.5456C56.7718 34.5456 55.7106 34.3422 54.6493 33.9129C53.588 33.4836 52.6623 32.8735 51.8268 32.1053C51.0139 31.3145 50.3591 30.3881 49.9301 29.3035C49.4785 28.219 49.2527 27.0666 49.2527 25.8691C49.2527 23.5192 50.0881 21.5534 51.7591 19.904C53.43 18.2772 55.4622 17.4637 57.8331 17.4637C59.6395 17.4637 61.2878 18.006 62.8232 19.0906C64.3587 20.1751 65.3522 21.576 65.849 23.2933H61.491C61.062 22.5928 60.5427 22.0731 59.9556 21.7342C59.3685 21.3953 58.6234 21.2371 57.7879 21.2371C56.3879 21.2371 55.2815 21.689 54.4235 22.5702C53.5655 23.4514 53.159 24.5812 53.159 25.9369C53.159 27.3378 53.6106 28.5127 54.5138 29.4165C55.417 30.3429 56.5686 30.7948 57.9911 30.7948C58.7137 30.7948 59.3685 30.614 60.0007 30.2525C60.6104 29.8684 61.1297 29.3939 61.5136 28.7838Z" fill="white"/>
<path d="M75.9646 17.4637C78.313 17.4637 80.3 18.2987 81.9258 19.9685C83.5515 21.6383 84.387 23.6692 84.387 26.0385C84.387 28.3853 83.5515 30.3936 81.858 32.0634C80.1645 33.7332 78.1549 34.5456 75.784 34.5456C73.4583 34.5456 71.4487 33.7107 69.7777 32.0183C68.0842 30.3484 67.2488 28.3401 67.2488 26.0159C67.2488 23.624 68.0842 21.5932 69.7777 19.9233C71.4712 18.2987 73.526 17.4637 75.9646 17.4637ZM75.8066 21.2321C75.1969 21.2321 74.5873 21.3675 74.0228 21.6157C73.4583 21.864 72.9389 22.225 72.5099 22.6763C71.6293 23.5563 71.1777 24.6846 71.1777 26.0385C71.1777 27.3473 71.6293 28.4755 72.5099 29.4007C73.3905 30.3259 74.4969 30.7772 75.8292 30.7772C77.184 30.7772 78.313 30.3259 79.1936 29.4233C80.0742 28.5207 80.5258 27.3924 80.5258 26.0385C80.5258 24.7072 80.0742 23.5789 79.171 22.6312C78.2452 21.6834 77.1388 21.2321 75.8066 21.2321Z" fill="white"/>
<path d="M70.4779 16.1028L74.2036 12.1122H77.2745L81.0453 16.1028H77.2745L75.7165 14.2541L73.9101 16.1028H70.4779Z" fill="white"/>
<path d="M98.0704 28.7838H102.428C101.909 30.4785 100.893 31.8794 99.38 32.9413C97.8672 34.0033 96.2188 34.5456 94.4124 34.5456C93.3286 34.5456 92.2673 34.3422 91.2061 33.9129C90.1448 33.4836 89.219 32.8735 88.3836 32.1053C87.5707 31.3145 86.9159 30.3881 86.4868 29.3035C86.0352 28.219 85.8094 27.0666 85.8094 25.8691C85.8094 23.5192 86.6449 21.5534 88.3158 19.904C89.9867 18.2772 92.0189 17.4637 94.3898 17.4637C96.1962 17.4637 97.8446 18.006 99.38 19.0906C100.915 20.1751 101.909 21.576 102.406 23.2933H98.0478C97.6188 22.5928 97.0994 22.0731 96.5123 21.7342C95.9027 21.3953 95.1801 21.2371 94.3447 21.2371C92.9447 21.2371 91.8383 21.689 90.9803 22.5702C90.1222 23.4514 89.6932 24.5812 89.6932 25.9369C89.6932 27.3378 90.1448 28.5127 91.048 29.4165C91.9512 30.3429 93.1028 30.7948 94.5253 30.7948C95.2479 30.7948 95.9253 30.614 96.5349 30.2525C97.1897 29.8684 97.6865 29.3939 98.0704 28.7838Z" fill="white"/>
<path d="M124.173 28.7838H128.531C128.012 30.4785 126.996 31.8794 125.483 32.9413C123.97 34.0033 122.322 34.5456 120.515 34.5456C119.431 34.5456 118.37 34.3422 117.309 33.9129C116.248 33.4836 115.322 32.8735 114.486 32.1053C113.651 31.3145 113.019 30.3881 112.59 29.3035C112.138 28.219 111.912 27.0666 111.912 25.8691C111.912 23.5192 112.748 21.5534 114.419 19.904C116.09 18.2772 118.122 17.4637 120.493 17.4637C122.299 17.4637 123.947 18.006 125.483 19.0906C127.018 20.1751 128.012 21.576 128.508 23.2933H124.151C123.722 22.5928 123.225 22.0731 122.615 21.7342C122.005 21.3953 121.283 21.2371 120.447 21.2371C119.048 21.2371 117.941 21.689 117.083 22.5702C116.225 23.4514 115.796 24.5812 115.796 25.9369C115.796 27.3378 116.248 28.5127 117.151 29.4165C118.054 30.3429 119.206 30.7948 120.628 30.7948C121.351 30.7948 122.028 30.614 122.638 30.2525C123.27 29.8684 123.789 29.3939 124.173 28.7838Z" fill="white"/>
<path d="M138.692 17.4637C141.04 17.4637 143.027 18.2987 144.653 19.9685C146.279 21.6383 147.114 23.6692 147.114 26.0385C147.114 28.3853 146.279 30.3936 144.585 32.0634C142.914 33.7332 140.882 34.5456 138.511 34.5456C136.186 34.5456 134.176 33.7107 132.505 32.0183C130.812 30.3484 129.976 28.3401 129.976 26.0159C129.976 23.624 130.812 21.5932 132.505 19.9233C134.199 18.2987 136.253 17.4637 138.692 17.4637ZM138.511 21.2321C137.902 21.2321 137.292 21.3675 136.727 21.6157C136.163 21.864 135.644 22.225 135.215 22.6763C134.334 23.5563 133.882 24.6846 133.882 26.0385C133.882 27.3473 134.334 28.4755 135.215 29.4007C136.095 30.3259 137.202 30.7772 138.534 30.7772C139.889 30.7772 141.018 30.3259 141.898 29.4233C142.802 28.5207 143.231 27.3924 143.231 26.0385C143.231 24.7072 142.779 23.5789 141.876 22.6312C140.973 21.6834 139.866 21.2321 138.511 21.2321Z" fill="white"/>
<path d="M133.205 16.1028L136.931 12.1122H140.002L143.773 16.1028H140.002L138.421 14.2541L136.637 16.1028H133.205Z" fill="white"/>
<path d="M160.73 28.7838H165.088C164.569 30.4785 163.553 31.8794 162.04 32.9413C160.527 34.0033 158.878 34.5456 157.072 34.5456C155.988 34.5456 154.927 34.3422 153.866 33.9129C152.804 33.4836 151.879 32.8735 151.043 32.1053C150.208 31.3145 149.598 30.3881 149.147 29.3035C148.695 28.219 148.492 27.0666 148.492 25.8691C148.492 23.5192 149.327 21.5534 150.998 19.904C152.669 18.2772 154.701 17.4637 157.072 17.4637C158.878 17.4637 160.527 18.006 162.062 19.0906C163.598 20.1751 164.591 21.576 165.088 23.2933H160.73C160.301 22.5928 159.782 22.0731 159.195 21.7342C158.585 21.3953 157.862 21.2371 157.027 21.2371C155.627 21.2371 154.521 21.689 153.663 22.5702C152.804 23.4514 152.375 24.5812 152.375 25.9369C152.375 27.3378 152.827 28.5127 153.73 29.4165C154.633 30.3429 155.785 30.7948 157.208 30.7948C157.93 30.7948 158.608 30.614 159.217 30.2525C159.849 29.8684 160.346 29.3939 160.73 28.7838Z" fill="white"/>
<path d="M79.8033 7.91863L81.1581 4.3789C81.4291 3.67997 81.6549 3.2065 81.8581 2.93595C82.0613 2.6654 82.3097 2.48503 82.6484 2.39484C83.2355 2.23702 83.6193 2.46248 83.7548 3.02613C83.8677 3.4996 83.5742 4.19853 82.8516 5.10037L80.2323 8.43719C80.0517 8.66265 79.9162 8.77538 79.8485 8.79793C79.713 8.82048 79.6453 8.79793 79.6001 8.66265C79.5549 8.59501 79.6227 8.34701 79.8033 7.91863Z" fill="white"/>
<path d="M81.4742 9.56438L83.9128 6.65594C84.387 6.09229 84.7709 5.70901 85.0418 5.50609C85.3128 5.30318 85.6289 5.21299 85.9676 5.25808C86.5773 5.30318 86.8482 5.61882 86.8031 6.22756C86.7579 6.72358 86.2611 7.26468 85.2676 7.89597L81.7 10.1957C81.4516 10.3535 81.2936 10.4211 81.2032 10.4211C81.0678 10.4211 81 10.3535 81.0226 10.2182C81.0226 10.128 81.1806 9.92512 81.4742 9.56438Z" fill="white"/>
<path d="M82.9871 11.2781L86.3289 9.49696C86.9837 9.15877 87.4805 8.9333 87.7966 8.86567C88.1353 8.77548 88.4514 8.82057 88.7449 8.9784C89.2869 9.24895 89.4223 9.65478 89.1514 10.1959C88.9256 10.6243 88.2482 10.9625 87.0966 11.1654L82.9193 11.9545C82.6484 11.9996 82.4677 12.0221 82.3774 11.977C82.2645 11.9094 82.2193 11.8417 82.2871 11.729C82.3548 11.6388 82.5806 11.5036 82.9871 11.2781Z" fill="white"/>
<path d="M142.463 7.96364L143.817 4.40136C144.088 3.70244 144.314 3.22897 144.517 2.93587C144.721 2.66532 144.969 2.48495 145.308 2.39476C145.895 2.23694 146.279 2.4624 146.437 3.0486C146.55 3.52207 146.256 4.221 145.534 5.14538L142.914 8.50475C142.734 8.73021 142.598 8.84294 142.53 8.86549C142.395 8.88803 142.327 8.86549 142.282 8.73021C142.214 8.64003 142.282 8.39202 142.463 7.96364Z" fill="white"/>
<path d="M144.134 9.60954L146.595 6.67855C147.069 6.11489 147.453 5.73161 147.724 5.5287C147.995 5.32578 148.311 5.2356 148.65 5.25814C149.259 5.30323 149.553 5.64143 149.485 6.22762C149.44 6.72364 148.943 7.28729 147.927 7.91858L144.337 10.2408C144.088 10.3986 143.93 10.4663 143.84 10.4663C143.705 10.4663 143.637 10.3986 143.659 10.2634C143.682 10.1957 143.84 9.97027 144.134 9.60954Z" fill="white"/>
<path d="M145.669 11.3457L149.033 9.56458C149.688 9.22639 150.185 9.00093 150.524 8.93329C150.862 8.84311 151.179 8.8882 151.472 9.04602C152.014 9.31658 152.15 9.72241 151.901 10.2635C151.675 10.6919 150.998 11.0301 149.824 11.233L145.624 12.0221C145.33 12.0672 145.15 12.0897 145.082 12.0447C144.969 11.977 144.924 11.8868 144.992 11.7966C145.037 11.7065 145.263 11.5486 145.669 11.3457Z" fill="white"/>
<defs>
<linearGradient id="paint0_linear" x1="13.681" y1="19.9877" x2="26.3483" y2="19.9877" gradientUnits="userSpaceOnUse">
<stop stop-color="#97C93D"/>
<stop offset="0.3585" stop-color="#80C44B"/>
<stop offset="1" stop-color="#4EB969"/>
</linearGradient>
</defs>
</svg>
